jumper-scaled_states
version=1
nRows=4
nColumns=111
inDegrees=yes

# SIMM Motion File Header:
name jumper-scaled_states
datacolumns 111
datarows 4
otherdata 1
range 3.34802460 3.34987407
endheader
time	/jointset/ground_pelvis/pelvis_tilt/value	/jointset/ground_pelvis/pelvis_tilt/speed	/jointset/ground_pelvis/pelvis_list/value	/jointset/ground_pelvis/pelvis_list/speed	/jointset/ground_pelvis/pelvis_rotation/value	/jointset/ground_pelvis/pelvis_rotation/speed	/jointset/ground_pelvis/pelvis_tx/value	/jointset/ground_pelvis/pelvis_tx/speed	/jointset/ground_pelvis/pelvis_ty/value	/jointset/ground_pelvis/pelvis_ty/speed	/jointset/ground_pelvis/pelvis_tz/value	/jointset/ground_pelvis/pelvis_tz/speed	/jointset/hip_r/hip_flexion_r/value	/jointset/hip_r/hip_flexion_r/speed	/jointset/hip_r/hip_adduction_r/value	/jointset/hip_r/hip_adduction_r/speed	/jointset/hip_r/hip_rotation_r/value	/jointset/hip_r/hip_rotation_r/speed	/jointset/knee_r/knee_flexion_r/value	/jointset/knee_r/knee_flexion_r/speed	/jointset/ankle_r/ankle_flexion_r/value	/jointset/ankle_r/ankle_flexion_r/speed	/jointset/subtalar_r/subtalar_angle_r/value	/jointset/subtalar_r/subtalar_angle_r/speed	/jointset/mtp_r/mtp_angle_r/value	/jointset/mtp_r/mtp_angle_r/speed	/jointset/hip_l/hip_flexion_l/value	/jointset/hip_l/hip_flexion_l/speed	/jointset/hip_l/hip_adduction_l/value	/jointset/hip_l/hip_adduction_l/speed	/jointset/hip_l/hip_rotation_l/value	/jointset/hip_l/hip_rotation_l/speed	/jointset/knee_l/knee_flexion_l/value	/jointset/knee_l/knee_flexion_l/speed	/jointset/ankle_l/ankle_flexion_l/value	/jointset/ankle_l/ankle_flexion_l/speed	/jointset/subtalar_l/subtalar_angle_l/value	/jointset/subtalar_l/subtalar_angle_l/speed	/jointset/mtp_l/mtp_angle_l/value	/jointset/mtp_l/mtp_angle_l/speed	/jointset/back/lumbar_extension/value	/jointset/back/lumbar_extension/speed	/jointset/back/lumbar_bending/value	/jointset/back/lumbar_bending/speed	/jointset/back/lumbar_rotation/value	/jointset/back/lumbar_rotation/speed	/jointset/acromial_r/arm_flex_r/value	/jointset/acromial_r/arm_flex_r/speed	/jointset/acromial_r/arm_add_r/value	/jointset/acromial_r/arm_add_r/speed	/jointset/acromial_r/arm_rot_r/value	/jointset/acromial_r/arm_rot_r/speed	/jointset/elbow_r/elbow_flex_r/value	/jointset/elbow_r/elbow_flex_r/speed	/jointset/radioulnar_r/pro_sup_r/value	/jointset/radioulnar_r/pro_sup_r/speed	/jointset/radius_hand_r/wrist_flex_r/value	/jointset/radius_hand_r/wrist_flex_r/speed	/jointset/radius_hand_r/wrist_dev_r/value	/jointset/radius_hand_r/wrist_dev_r/speed	/jointset/acromial_l/arm_flex_l/value	/jointset/acromial_l/arm_flex_l/speed	/jointset/acromial_l/arm_add_l/value	/jointset/acromial_l/arm_add_l/speed	/jointset/acromial_l/arm_rot_l/value	/jointset/acromial_l/arm_rot_l/speed	/jointset/elbow_l/elbow_flex_l/value	/jointset/elbow_l/elbow_flex_l/speed	/jointset/radioulnar_l/pro_sup_l/value	/jointset/radioulnar_l/pro_sup_l/speed	/jointset/radius_hand_l/wrist_flex_l/value	/jointset/radius_hand_l/wrist_flex_l/speed	/jointset/radius_hand_l/wrist_dev_l/value	/jointset/radius_hand_l/wrist_dev_l/speed	/forceset/hamstrings_r/activation	/forceset/hamstrings_r/fiber_length	/forceset/bifemsh_r/activation	/forceset/bifemsh_r/fiber_length	/forceset/glut_max_r/activation	/forceset/glut_max_r/fiber_length	/forceset/iliopsoas_r/activation	/forceset/iliopsoas_r/fiber_length	/forceset/rect_fem_r/activation	/forceset/rect_fem_r/fiber_length	/forceset/vasti_r/activation	/forceset/vasti_r/fiber_length	/forceset/gastroc_r/activation	/forceset/gastroc_r/fiber_length	/forceset/soleus_r/activation	/forceset/soleus_r/fiber_length	/forceset/tib_ant_r/activation	/forceset/tib_ant_r/fiber_length	/forceset/hamstrings_l/activation	/forceset/hamstrings_l/fiber_length	/forceset/bifemsh_l/activation	/forceset/bifemsh_l/fiber_length	/forceset/glut_max_l/activation	/forceset/glut_max_l/fiber_length	/forceset/iliopsoas_l/activation	/forceset/iliopsoas_l/fiber_length	/forceset/rect_fem_l/activation	/forceset/rect_fem_l/fiber_length	/forceset/vasti_l/activation	/forceset/vasti_l/fiber_length	/forceset/gastroc_l/activation	/forceset/gastroc_l/fiber_length	/forceset/soleus_l/activation	/forceset/soleus_l/fiber_length	/forceset/tib_ant_l/activation	/forceset/tib_ant_l/fiber_length
      3.34802460	    -13.50294911	      0.08026538	     -3.71427528	      0.44322008	      3.40834531	     -1.59706257	      0.04180033	      0.01738096	      0.48357504	     -0.05911024	     -0.00571592	     -0.00861834	     86.50598798	      5.51934716	    -13.95923467	     -0.72227374	     -4.98539217	      3.23025869	    116.21010712	     11.20153491	     41.15681444	     10.45357161	     -0.00000000	      0.00000000	      0.00000000	     -0.00000000	     88.06135774	      5.37159838	     -9.74025017	      1.19673328	      3.53282618	      1.13849142	    116.21479767	     12.07629500	     42.24916023	      6.11913346	     -0.00000000	     -0.00000000	      0.00000000	      0.00000000	    -24.54249688	      0.26292147	      4.11853571	     -1.90738266	      5.93556415	     -1.15825727	     -0.00000000	     -0.00000000	      0.00000000	      0.00000000	      0.00000000	      0.00000000	      0.00000000	      0.00000000	      0.00000000	      0.00000000	      0.00000000	      0.00000000	     -0.00000000	      0.00000000	     -0.00000000	     -0.00000000	      0.00000000	      0.00000000	     -0.00000000	     -0.00000000	      0.00000000	      0.00000000	     -0.00000000	     -0.00000000	     -0.00000000	      0.00000000	     -0.00000000	     -0.00000000	      0.03721551	      0.12484097	      0.05076760	      0.11829438	      0.02000000	      0.17829672	      0.68825724	      0.04390522	      0.07121618	      0.09384510	      0.13671902	      0.12956131	      0.02000000	      0.07218205	      0.02000000	      0.05873417	      1.00000000	      0.04835730	      0.02000000	      0.12405224	      0.05058307	      0.11733005	      0.02000000	      0.17860107	      0.02000000	      0.04433664	      0.07258288	      0.09047708	      0.13883329	      0.12789260	      0.02000000	      0.06771778	      0.02000000	      0.05661614	      1.00000000	      0.04657261
      3.34889890	    -13.50291421	     -0.00036098	     -3.71390562	      0.40223983	      3.40693740	     -1.62280289	      0.04181552	      0.01737060	      0.48352335	     -0.05915076	     -0.00572348	     -0.00866655	     86.51085730	      5.62041171	    -13.95985404	     -0.69558987	     -4.98255786	      3.25594211	    116.21989909	     11.20007567	     41.16543935	      9.25714359	     -0.00000000	      0.00000000	      0.00000000	     -0.00000000	     88.06610468	      5.48754726	     -9.73923088	      1.13598680	      3.53382176	      1.13950480	    116.22536229	     12.09044362	     42.25430331	      5.58955801	     -0.00000000	     -0.00000000	      0.00000000	      0.00000000	    -24.54223696	      0.33164654	      4.11688276	     -1.87325251	      5.93455560	     -1.14946528	     -0.00000000	     -0.00000000	      0.00000000	      0.00000000	      0.00000000	      0.00000000	      0.00000000	      0.00000000	      0.00000000	      0.00000000	      0.00000000	      0.00000000	     -0.00000000	      0.00000000	     -0.00000000	     -0.00000000	      0.00000000	      0.00000000	     -0.00000000	     -0.00000000	      0.00000000	      0.00000000	     -0.00000000	     -0.00000000	     -0.00000000	      0.00000000	     -0.00000000	     -0.00000000	      0.03700769	      0.12484671	      0.05040776	      0.11829527	      0.02000000	      0.17829811	      0.68585027	      0.04390518	      0.07098100	      0.09385239	      0.13691201	      0.12956345	      0.02000000	      0.07218496	      0.02000000	      0.05873729	      1.00000000	      0.04835504	      0.02000000	      0.12405423	      0.05022571	      0.11733088	      0.02000000	      0.17860284	      0.02000000	      0.04433012	      0.07257979	      0.09047642	      0.13868576	      0.12789726	      0.02000000	      0.06771904	      0.02000000	      0.05661790	      1.00000000	      0.04657119
      3.34968308	    -13.50294273	     -0.07233817	     -3.71360521	      0.36337571	      3.40565674	     -1.64333428	      0.04182914	      0.01736083	      0.48347695	     -0.05918682	     -0.00573029	     -0.00871500	     86.51530136	      5.71412772	    -13.96039158	     -0.67578100	     -4.97999617	      3.27368726	    116.22868414	     11.20615632	     41.17225095	      8.10648398	     -0.00000000	      0.00000000	      0.00000000	     -0.00000000	     88.07044873	      5.59169865	     -9.73835943	      1.08741593	      3.53471915	      1.15191174	    116.23484773	     12.10188292	     42.25847676	      5.09207232	     -0.00000000	     -0.00000000	      0.00000000	      0.00000000	    -24.54195278	      0.39311633	      4.11542688	     -1.83930495	      5.93365676	     -1.14281757	     -0.00000000	     -0.00000000	      0.00000000	      0.00000000	      0.00000000	      0.00000000	      0.00000000	      0.00000000	      0.00000000	      0.00000000	      0.00000000	      0.00000000	     -0.00000000	      0.00000000	     -0.00000000	     -0.00000000	      0.00000000	      0.00000000	     -0.00000000	     -0.00000000	      0.00000000	      0.00000000	     -0.00000000	     -0.00000000	     -0.00000000	      0.00000000	     -0.00000000	     -0.00000000	      0.03682352	      0.12485191	      0.05008913	      0.11829604	      0.02000000	      0.17829938	      0.68376339	      0.04390511	      0.07077281	      0.09385881	      0.13706583	      0.12956545	      0.02000000	      0.07218750	      0.02000000	      0.05873989	      1.00000000	      0.04835304	      0.02000000	      0.12405606	      0.04990927	      0.11733161	      0.02000000	      0.17860443	      0.02000000	      0.04432430	      0.07257706	      0.09047596	      0.13855540	      0.12790142	      0.02000000	      0.06772011	      0.02000000	      0.05661941	      1.00000000	      0.04656995
      3.34987407	    -13.50295822	     -0.08985769	     -3.71353676	      0.35335570	      3.40534239	     -1.64831136	      0.04183245	      0.01735834	      0.48346564	     -0.05919552	     -0.00573196	     -0.00872653	     86.51639494	      5.73705213	    -13.96052022	     -0.67121366	     -4.97937084	      3.27407757	    116.23082463	     11.20741820	     41.17377198	      7.82076125	     -0.00000000	      0.00000000	      0.00000000	     -0.00000000	     88.07151916	      5.61708496	     -9.73815281	      1.07616539	      3.53493965	      1.15708393	    116.23715946	     12.10488335	     42.25944128	      5.00962457	     -0.00000000	     -0.00000000	      0.00000000	      0.00000000	    -24.54187627	      0.40808023	      4.11507641	     -1.83048566	      5.93343866	     -1.14096839	     -0.00000000	     -0.00000000	      0.00000000	      0.00000000	      0.00000000	      0.00000000	      0.00000000	      0.00000000	      0.00000000	      0.00000000	      0.00000000	      0.00000000	     -0.00000000	      0.00000000	     -0.00000000	     -0.00000000	      0.00000000	      0.00000000	     -0.00000000	     -0.00000000	      0.00000000	      0.00000000	     -0.00000000	     -0.00000000	     -0.00000000	      0.00000000	     -0.00000000	     -0.00000000	      0.03677897	      0.12485319	      0.05001210	      0.11829623	      0.02000000	      0.17829970	      0.68326511	      0.04390508	      0.07072249	      0.09386035	      0.13710077	      0.12956594	      0.02000000	      0.07218811	      0.02000000	      0.05874048	      1.00000000	      0.04835256	      0.02000000	      0.12405651	      0.04983277	      0.11733179	      0.02000000	      0.17860482	      0.02000000	      0.04432289	      0.07257640	      0.09047587	      0.13852393	      0.12790243	      0.02000000	      0.06772035	      0.02000000	      0.05661977	      1.00000000	      0.04656966
